<?xml version="1.0" encoding="UTF-8" standalone="no"?>
<!-- Created with Inkscape (http://www.inkscape.org/) -->

<svg
   width="100mm"
   height="100mm"
   viewBox="0 0 100 100"
   version="1.1"
   id="svg1"
   inkscape:version="1.3.2 (091e20e, 2023-11-25, custom)"
   sodipodi:docname="pysakil.svg"
   xmlns:inkscape="http://www.inkscape.org/namespaces/inkscape"
   xmlns:sodipodi="http://sodipodi.sourceforge.net/DTD/sodipodi-0.dtd"
   xmlns="http://www.w3.org/2000/svg"
   xmlns:svg="http://www.w3.org/2000/svg">
  <sodipodi:namedview
     id="namedview1"
     pagecolor="#505050"
     bordercolor="#eeeeee"
     borderopacity="1"
     inkscape:showpageshadow="0"
     inkscape:pageopacity="0"
     inkscape:pagecheckerboard="0"
     inkscape:deskcolor="#505050"
     inkscape:document-units="mm"
     inkscape:zoom="2.56"
     inkscape:cx="200.78125"
     inkscape:cy="227.14843"
     inkscape:window-width="2560"
     inkscape:window-height="1417"
     inkscape:window-x="1072"
     inkscape:window-y="108"
     inkscape:window-maximized="1"
     inkscape:current-layer="layer1" />
  <defs
     id="defs1">
    <inkscape:path-effect
       effect="fillet_chamfer"
       id="path-effect6"
       is_visible="true"
       lpeversion="1"
       nodesatellites_param="F,0,0,1,0,0,0,1 @ F,0,0,1,0,0,0,1 @ F,0,0,1,0,5,0,1 @ F,0,0,1,0,5,0,1"
       radius="0"
       unit="px"
       method="auto"
       mode="F"
       chamfer_steps="1"
       flexible="false"
       use_knot_distance="true"
       apply_no_radius="true"
       apply_with_radius="true"
       only_selected="false"
       hide_knots="false" />
    <inkscape:path-effect
       effect="fillet_chamfer"
       id="path-effect5"
       is_visible="true"
       lpeversion="1"
       nodesatellites_param="F,0,0,1,0,0,0,1 @ F,0,0,1,0,0,0,1 @ F,0,0,1,0,5,0,1 @ F,0,0,1,0,5,0,1"
       radius="0"
       unit="px"
       method="auto"
       mode="F"
       chamfer_steps="1"
       flexible="false"
       use_knot_distance="true"
       apply_no_radius="true"
       apply_with_radius="true"
       only_selected="false"
       hide_knots="false" />
    <inkscape:path-effect
       effect="fillet_chamfer"
       id="path-effect4"
       is_visible="true"
       lpeversion="1"
       nodesatellites_param="F,0,0,1,0,10,0,1 @ F,0,0,1,0,10,0,1 @ F,0,0,1,0,10,0,1 @ F,0,0,1,0,10,0,1"
       radius="0"
       unit="px"
       method="auto"
       mode="F"
       chamfer_steps="1"
       flexible="false"
       use_knot_distance="true"
       apply_no_radius="true"
       apply_with_radius="true"
       only_selected="false"
       hide_knots="false" />
    <inkscape:path-effect
       effect="fillet_chamfer"
       id="path-effect4-7"
       is_visible="true"
       lpeversion="1"
       nodesatellites_param="F,0,0,1,0,10,0,1 @ F,0,0,1,0,10,0,1 @ F,0,0,1,0,10,0,1 @ F,0,0,1,0,10,0,1"
       radius="0"
       unit="px"
       method="auto"
       mode="F"
       chamfer_steps="1"
       flexible="false"
       use_knot_distance="true"
       apply_no_radius="true"
       apply_with_radius="true"
       only_selected="false"
       hide_knots="false" />
  </defs>
  <g
     inkscape:label="Taso 1"
     inkscape:groupmode="layer"
     id="layer1">
    <circle
       style="fill:#000000;fill-opacity:1;stroke-width:0.293;stroke-dasharray:none"
       id="path1-9"
       cx="50"
       cy="50"
       r="49.695427" />
    <circle
       style="fill:#e3b945;fill-opacity:1;stroke-width:0.268856;stroke-dasharray:none"
       id="path1"
       cx="50"
       cy="50"
       r="45.526737" />
    <circle
       style="fill:#ffffff;fill-opacity:1;stroke-width:0.220631;stroke-dasharray:none"
       id="path1-2"
       cx="50"
       cy="50"
       r="37.360603" />
    <path
       style="display:none;fill:#3f3f3f;fill-opacity:1;stroke-width:0.293;stroke-dasharray:none"
       id="rect2"
       width="56.56509"
       height="40.925648"
       x="21.717455"
       y="29.537176"
       sodipodi:type="rect"
       d="m 31.717455,29.537176 h 36.56509 a 10,10 45 0 1 10,10 v 20.925648 a 10,10 135 0 1 -10,10 h -36.56509 a 10,10 45 0 1 -10,-10 V 39.537176 a 10,10 135 0 1 10,-10 z"
       inkscape:path-effect="#path-effect4"
       transform="translate(0,-1.6077932)" />
    <path
       style="fill:#ffffff;fill-opacity:1;stroke-width:0.293;stroke-dasharray:none"
       id="rect2-9"
       width="56.56509"
       height="40.925648"
       x="21.717455"
       y="29.537176"
       sodipodi:type="rect"
       d="m 31.717455,29.537176 h 36.56509 a 10,10 45 0 1 10,10 v 20.925648 a 10,10 135 0 1 -10,10 h -36.56509 a 10,10 45 0 1 -10,-10 V 39.537176 a 10,10 135 0 1 10,-10 z"
       transform="matrix(0.76269852,0,0,0.70910941,11.865074,12.936737)"
       inkscape:path-effect="#path-effect4-7" />
    <path
       style="display:none;fill:#3f3f3f;fill-opacity:1;stroke-width:0.293;stroke-dasharray:none"
       id="rect4"
       width="11.108389"
       height="9.646759"
       x="30.292387"
       y="67.685722"
       sodipodi:type="rect"
       d="m 30.292387,67.685722 h 11.108389 v 4.646759 a 5,5 135 0 1 -5,5 h -1.108389 a 5,5 45 0 1 -5,-5 z"
       inkscape:path-effect="#path-effect5"
       transform="translate(0,-1.6077932)" />
    <path
       style="display:none;fill:#3f3f3f;fill-opacity:1;stroke-width:0.293;stroke-dasharray:none"
       id="rect4-3"
       width="11.108389"
       height="9.646759"
       x="58.59922"
       y="67.685722"
       sodipodi:type="rect"
       d="m 58.59922,67.685722 h 11.108389 v 4.646759 a 5,5 135 0 1 -5,5 H 63.59922 a 5,5 45 0 1 -5,-5 z"
       inkscape:path-effect="#path-effect6"
       transform="translate(0,-1.6077932)" />
  </g>
</svg>
